<svg width="196" height="40" viewBox="0 0 196 40" fill="none" xmlns="http://www.w3.org/2000/svg">
<path d="M165.209 15.3936V19.3004H193.172L193.215 19.2077L195.098 15.3936H165.209Z" fill="#E53312"/>
<path d="M65.2408 34.2549L66.2651 38.1617H183.856L185.782 34.2549H65.2408Z" fill="#E53312"/>
<path d="M0 0H3.43373L6.9211 14.7592H6.97476L10.867 0H14.3251L18.11 14.7592H18.1636L21.7583 0H25.192L19.8659 19.3001H16.4321L12.5692 4.54091H12.5155L8.56968 19.3001H5.08231L0 0Z" fill="#263286"/>
<path d="M41.273 0H44.8677L52.3009 19.3001H48.677L46.8674 14.1934H39.1659L37.3564 19.3001H33.869L41.273 0ZM40.0829 11.623H45.9749L43.0825 3.32642H42.9996L40.0829 11.623Z" fill="#263286"/>
<path d="M63.5142 0H66.8942V16.3785H76.7077V19.2952H63.519V0H63.5142Z" fill="#263286"/>
<path d="M88.4087 0H91.7888V16.3785H101.602V19.2952H88.4136V0H88.4087Z" fill="#263286"/>
<path d="M113.298 0H127.189V2.91672H116.674V7.96976H126.404V10.7255H116.674V16.3736H127.375V19.2903H113.293V0H113.298Z" fill="#263286"/>
<path d="M139.651 0H144.407L149.733 15.1103H149.787L154.976 0H159.678V19.3001H156.464V4.40434H156.41L151.06 19.2952H148.275L142.924 4.40434H142.87V19.2952H139.656V0H139.651Z" fill="#263286"/>
<path d="M6.11145 24.8262L7.13572 28.7281H188.514L190.44 24.8262H6.11145Z" fill="#263286"/>
<path d="M15.6469 32.5762V33.9223H11.8083V35.4831H15.3298V36.7269H11.8083V38.5072H15.7298V39.8533H10.2085V32.5811H15.6469V32.5762Z" fill="#263286"/>
<path d="M19.0464 38.0543C19.1342 38.2251 19.2513 38.3616 19.3976 38.4641C19.5439 38.5714 19.7146 38.6494 19.9097 38.6982C20.1048 38.7469 20.3097 38.7762 20.5194 38.7762C20.6608 38.7762 20.8169 38.7665 20.9779 38.7421C21.1388 38.7177 21.2949 38.6738 21.4364 38.6055C21.5778 38.5372 21.6997 38.4445 21.7924 38.3275C21.8851 38.2104 21.9339 38.0592 21.9339 37.8739C21.9339 37.6788 21.8704 37.5178 21.7436 37.3959C21.6168 37.274 21.451 37.1715 21.251 37.0886C21.0462 37.0057 20.8169 36.9374 20.5584 36.874C20.2999 36.8106 20.0365 36.7423 19.7731 36.6692C19.5 36.6009 19.2366 36.5179 18.9781 36.4204C18.7196 36.3229 18.4904 36.196 18.2855 36.04C18.0807 35.8839 17.9148 35.6888 17.7929 35.4547C17.671 35.2205 17.6027 34.9377 17.6027 34.606C17.6027 34.2304 17.6807 33.9085 17.8417 33.6354C18.0026 33.3622 18.2075 33.133 18.466 32.9477C18.7245 32.7623 19.0171 32.6306 19.3439 32.5428C19.6707 32.455 19.9975 32.4111 20.3194 32.4111C20.6999 32.4111 21.0657 32.455 21.412 32.5379C21.7631 32.6209 22.0704 32.7623 22.3436 32.9477C22.6167 33.1379 22.8313 33.3817 22.9923 33.6744C23.1532 33.9719 23.2313 34.328 23.2313 34.7474H21.6851C21.6705 34.5279 21.6266 34.3524 21.5485 34.206C21.4705 34.0597 21.3681 33.9524 21.2364 33.8695C21.1047 33.7866 20.9584 33.728 20.7925 33.6939C20.6267 33.6598 20.4462 33.6451 20.2463 33.6451C20.1194 33.6451 19.9878 33.6598 19.8609 33.6841C19.7292 33.7134 19.6122 33.7573 19.5098 33.8256C19.4025 33.8939 19.3195 33.9768 19.2513 34.0792C19.183 34.1817 19.1488 34.3085 19.1488 34.4645C19.1488 34.606 19.1781 34.723 19.2317 34.8108C19.2854 34.8986 19.3927 34.9816 19.5537 35.0547C19.7146 35.1279 19.9341 35.2059 20.217 35.2791C20.4999 35.3522 20.8657 35.4498 21.3242 35.5668C21.4607 35.5961 21.6461 35.6449 21.89 35.7132C22.1338 35.7863 22.3679 35.8985 22.6069 36.0546C22.8459 36.2107 23.0508 36.4204 23.2215 36.6789C23.3971 36.9423 23.48 37.274 23.48 37.6837C23.48 38.0153 23.4166 38.3275 23.2849 38.6104C23.1532 38.8981 22.963 39.142 22.7094 39.3469C22.4557 39.5517 22.1387 39.7127 21.7631 39.8297C21.3876 39.9468 20.9486 40.0005 20.456 40.0005C20.056 40.0005 19.6658 39.9517 19.2903 39.8541C18.9147 39.7566 18.583 39.6005 18.2904 39.3908C18.0026 39.181 17.7734 38.9128 17.6027 38.586C17.432 38.2592 17.349 37.8739 17.3588 37.4252H18.905C18.905 37.669 18.9489 37.8788 19.0366 38.0446L19.0464 38.0543Z" fill="#263286"/>
<path d="M24.8799 33.9223V32.5762H30.8352V33.9223H28.655V39.8485H27.0552V33.9223H24.875H24.8799Z" fill="#263286"/>
<path d="M33.0692 38.2783V39.8489H31.4694V38.2783H33.0692Z" fill="#263286"/>
<path d="M38.3855 39.8486V35.2248H36.5955V34.1371C36.8442 34.142 37.0881 34.1274 37.3222 34.0786C37.5563 34.0298 37.766 33.9566 37.9514 33.8445C38.1367 33.7323 38.2977 33.586 38.4245 33.4006C38.5562 33.2153 38.6391 32.9909 38.6781 32.7178H39.8292V39.8437H38.3806L38.3855 39.8486Z" fill="#263286"/>
<path d="M44.5555 38.634C44.7262 38.8096 44.9359 38.8973 45.1847 38.8973C45.4481 38.8973 45.6676 38.8193 45.8383 38.6681C46.009 38.5169 46.1455 38.3267 46.2431 38.1072C46.3455 37.8877 46.4187 37.6487 46.4626 37.4C46.5065 37.1512 46.5357 36.9269 46.5504 36.7269L46.5309 36.7074C46.3358 36.9903 46.1016 37.1951 45.8383 37.3171C45.5749 37.439 45.2676 37.5024 44.9213 37.5024C44.614 37.5024 44.3165 37.4341 44.0238 37.3024C43.7312 37.1707 43.4824 36.9903 43.2825 36.7659C43.0923 36.5464 42.9557 36.3025 42.863 36.0245C42.7752 35.7465 42.7313 35.4636 42.7313 35.1807C42.7313 34.8149 42.7899 34.4735 42.9118 34.1565C43.0288 33.8394 43.1996 33.5663 43.419 33.3322C43.6385 33.0981 43.9019 32.9127 44.2092 32.7761C44.5165 32.6396 44.853 32.5713 45.2286 32.5713C45.77 32.5713 46.2187 32.6786 46.5699 32.8932C46.9211 33.1078 47.1991 33.3907 47.4088 33.737C47.6185 34.0882 47.7649 34.4833 47.8478 34.9222C47.9307 35.3612 47.9697 35.8099 47.9697 36.2586C47.9697 36.7074 47.9209 37.1415 47.8185 37.5804C47.7161 38.0243 47.5551 38.4194 47.3308 38.7754C47.1064 39.1315 46.8186 39.4192 46.4626 39.6387C46.1114 39.8582 45.6773 39.9704 45.17 39.9704C44.8628 39.9704 44.5799 39.9265 44.3165 39.8436C44.0531 39.7607 43.819 39.6338 43.6141 39.4631C43.4093 39.2924 43.2435 39.0876 43.1166 38.8437C42.9898 38.5998 42.902 38.3218 42.863 38.0096H44.2385C44.2872 38.2486 44.3945 38.4535 44.5652 38.6291L44.5555 38.634ZM45.7797 36.3074C45.9212 36.2343 46.0382 36.1416 46.1358 36.0196C46.2333 35.8977 46.3016 35.7563 46.3504 35.5953C46.3992 35.4344 46.4236 35.2685 46.4236 35.0929C46.4236 34.932 46.3992 34.771 46.3455 34.6101C46.2967 34.4491 46.2187 34.3077 46.1212 34.1808C46.0236 34.054 45.9017 33.9565 45.7602 33.8784C45.6188 33.8004 45.4529 33.7663 45.2725 33.7663C45.1018 33.7663 44.9506 33.8053 44.814 33.8784C44.6774 33.9516 44.5604 34.054 44.4677 34.176C44.375 34.2979 44.3019 34.4394 44.2531 34.5954C44.2043 34.7515 44.1799 34.9125 44.1799 35.0734C44.1799 35.2344 44.2043 35.41 44.2482 35.566C44.2921 35.727 44.3604 35.8684 44.4482 35.9953C44.536 36.1221 44.6482 36.2245 44.7896 36.3025C44.9311 36.3806 45.092 36.4196 45.2725 36.4196C45.4676 36.4196 45.6383 36.3855 45.7797 36.3123V36.3074Z" fill="#263286"/>
<path d="M49.6232 34.5076C49.7646 34.0345 49.95 33.659 50.189 33.3712C50.428 33.0883 50.7011 32.8835 51.0181 32.7615C51.3352 32.6396 51.6668 32.5762 52.0229 32.5762C52.3789 32.5762 52.7204 32.6396 53.0374 32.7615C53.3544 32.8835 53.6324 33.0883 53.8714 33.3712C54.1104 33.659 54.3007 34.0345 54.4421 34.5076C54.5836 34.9808 54.6518 35.5612 54.6518 36.2538C54.6518 36.9464 54.5836 37.5609 54.4421 38.0389C54.3007 38.5169 54.1104 38.9022 53.8714 39.1851C53.6324 39.4729 53.3544 39.6729 53.0374 39.7948C52.7204 39.9167 52.3838 39.9801 52.0229 39.9801C51.662 39.9801 51.3352 39.9167 51.0181 39.7948C50.7011 39.6729 50.428 39.468 50.189 39.1851C49.95 38.9022 49.7646 38.5169 49.6232 38.0389C49.4817 37.5609 49.4135 36.9659 49.4135 36.2538C49.4135 35.5417 49.4817 34.9808 49.6232 34.5076ZM50.8816 36.9903C50.8962 37.278 50.9401 37.5561 51.0084 37.8243C51.0815 38.0926 51.1937 38.3218 51.3498 38.512C51.5059 38.7023 51.7302 38.7949 52.0229 38.7949C52.3155 38.7949 52.5497 38.7023 52.7106 38.512C52.8716 38.3218 52.9837 38.0926 53.0569 37.8243C53.1301 37.5561 53.1691 37.278 53.1837 36.9903C53.1984 36.7025 53.2032 36.4537 53.2032 36.2538C53.2032 36.1318 53.2032 35.9855 53.1984 35.8099C53.1984 35.6343 53.1837 35.4587 53.1593 35.2734C53.1349 35.0881 53.1008 34.9076 53.0569 34.7271C53.013 34.5467 52.9447 34.3857 52.8569 34.2443C52.7691 34.1028 52.657 33.9858 52.5204 33.898C52.3838 33.8102 52.218 33.7663 52.0229 33.7663C51.8278 33.7663 51.662 33.8102 51.5303 33.898C51.3986 33.9858 51.2864 34.1028 51.2035 34.2443C51.1206 34.3857 51.0523 34.5467 51.0035 34.7271C50.9547 34.9076 50.9206 35.0881 50.9011 35.2734C50.8816 35.4587 50.8669 35.6343 50.8669 35.8099C50.8669 35.9806 50.8621 36.1318 50.8621 36.2538C50.8621 36.4586 50.8669 36.7025 50.8816 36.9903Z" fill="#263286"/>
<path d="M58.7001 35.6002C58.8757 35.5856 59.0416 35.5465 59.1928 35.4831C59.344 35.4197 59.4708 35.3271 59.5683 35.2051C59.6659 35.0832 59.7146 34.9173 59.7146 34.7174C59.7146 34.4101 59.6122 34.176 59.4074 34.015C59.2025 33.8541 58.9684 33.7711 58.705 33.7711C58.3392 33.7711 58.0612 33.8931 57.8759 34.1321C57.6905 34.376 57.5978 34.6784 57.6076 35.0442H56.2321C56.2468 34.6784 56.3102 34.3418 56.4321 34.0394C56.5492 33.737 56.7199 33.4785 56.9296 33.259C57.1394 33.0395 57.3979 32.8737 57.7003 32.7566C58.0027 32.6396 58.3295 32.5762 58.7001 32.5762C58.983 32.5762 59.2708 32.6201 59.5537 32.703C59.8415 32.7859 60.0951 32.9176 60.3243 33.0834C60.5536 33.2541 60.734 33.459 60.8804 33.7029C61.0267 33.9467 61.095 34.2296 61.095 34.5467C61.095 34.893 61.0121 35.2002 60.8462 35.4636C60.6804 35.727 60.4316 35.9075 60.0951 36.005V36.0245C60.4902 36.1123 60.7974 36.3025 61.0218 36.5952C61.2462 36.8878 61.3584 37.239 61.3584 37.6438C61.3584 38.0194 61.2852 38.3511 61.1389 38.6437C60.9925 38.9364 60.7974 39.1802 60.5536 39.3753C60.3097 39.5704 60.0268 39.7216 59.7098 39.8241C59.3927 39.9265 59.0562 39.9753 58.7099 39.9753C58.3099 39.9753 57.9441 39.9167 57.6173 39.8046C57.2906 39.6875 57.0077 39.5217 56.7784 39.3022C56.5492 39.0827 56.3687 38.8144 56.2419 38.4925C56.1151 38.1755 56.0566 37.8048 56.0614 37.3951H57.4369C57.4418 37.5853 57.4759 37.7658 57.5295 37.9414C57.5832 38.117 57.6612 38.2633 57.7637 38.3901C57.8661 38.5169 57.9929 38.6145 58.1441 38.6925C58.2953 38.7705 58.4758 38.8047 58.6904 38.8047C59.0172 38.8047 59.2903 38.7023 59.5147 38.5023C59.739 38.3023 59.8512 38.0292 59.8512 37.6829C59.8512 37.4097 59.7976 37.2049 59.6951 37.0634C59.5927 36.922 59.4561 36.8196 59.2952 36.7513C59.1342 36.6879 58.9538 36.6488 58.7587 36.6391C58.5636 36.6293 58.3782 36.6245 58.2026 36.6245V35.6051C58.3587 35.6197 58.5245 35.6197 58.7001 35.6051V35.6002Z" fill="#263286"/>
</svg>
